<svg xmlns="http://www.w3.org/2000/svg" width="89" height="32" viewBox="0 0 89 32">
  <g fill="none" fill-rule="evenodd">
    <path class="logo-text" fill="#181A20" d="M45.928,12.688 L45.928,22 L48.44,22 L48.44,12.688 L51.864,12.688 L51.864,10.576 L42.504,10.576 L42.504,12.688 L45.928,12.688 Z M54.952,17.872 C54.952,18.2026683 54.9839997,18.5253318 55.048,18.84 C55.1120003,19.1546682 55.2213326,19.4373321 55.376,19.688 C55.5306674,19.9386679 55.7359987,20.1386659 55.992,20.288 C56.2480013,20.4373341 56.5679981,20.512 56.952,20.512 C57.3360019,20.512 57.6586654,20.4373341 57.92,20.288 C58.1813346,20.1386659 58.3893326,19.9386679 58.544,19.688 C58.6986674,19.4373321 58.8079997,19.1546682 58.872,18.84 C58.9360003,18.5253318 58.968,18.2026683 58.968,17.872 C58.968,17.5413317 58.9360003,17.2160016 58.872,16.896 C58.8079997,16.5759984 58.6986674,16.2933346 58.544,16.048 C58.3893326,15.8026654 58.1813346,15.6026674 57.92,15.448 C57.6586654,15.2933326 57.3360019,15.216 56.952,15.216 C56.5679981,15.216 56.2480013,15.2933326 55.992,15.448 C55.7359987,15.6026674 55.5306674,15.8026654 55.376,16.048 C55.2213326,16.2933346 55.1120003,16.5759984 55.048,16.896 C54.9839997,17.2160016 54.952,17.5413317 54.952,17.872 Z M52.68,17.872 C52.68,17.2106634 52.7813323,16.6106694 52.984,16.072 C53.1866677,15.5333306 53.4746648,15.0746686 53.848,14.696 C54.2213352,14.3173314 54.6693307,14.024001 55.192,13.816 C55.7146693,13.607999 56.3013301,13.504 56.952,13.504 C57.6026699,13.504 58.1919974,13.607999 58.72,13.816 C59.2480026,14.024001 59.6986648,14.3173314 60.072,14.696 C60.4453352,15.0746686 60.7333323,15.5333306 60.936,16.072 C61.1386677,16.6106694 61.24,17.2106634 61.24,17.872 C61.24,18.5333366 61.1386677,19.130664 60.936,19.664 C60.7333323,20.197336 60.4453352,20.6533314 60.072,21.032 C59.6986648,21.4106686 59.2480026,21.7013323 58.72,21.904 C58.1919974,22.1066677 57.6026699,22.208 56.952,22.208 C56.3013301,22.208 55.7146693,22.1066677 55.192,21.904 C54.6693307,21.7013323 54.2213352,21.4106686 53.848,21.032 C53.4746648,20.6533314 53.1866677,20.197336 52.984,19.664 C52.7813323,19.130664 52.68,18.5333366 52.68,17.872 Z M62.92,10.576 L62.92,22 L65.192,22 L65.192,19.152 L66.072,18.304 L68.344,22 L71.096,22 L67.624,16.768 L70.744,13.728 L68.056,13.728 L65.192,16.704 L65.192,10.576 L62.92,10.576 Z M77.464,16.976 C77.3573328,16.3999971 77.1680014,15.9626682 76.896,15.664 C76.6239986,15.3653318 76.2106694,15.216 75.656,15.216 C75.2933315,15.216 74.9920012,15.2773327 74.752,15.4 C74.5119988,15.5226673 74.3200007,15.6746658 74.176,15.856 C74.0319993,16.0373342 73.930667,16.2293323 73.872,16.432 C73.813333,16.6346677 73.7786667,16.8159992 73.768,16.976 L77.464,16.976 Z M73.768,18.416 C73.8000002,19.1520037 73.986665,19.6853317 74.328,20.016 C74.669335,20.3466683 75.1599968,20.512 75.8,20.512 C76.258669,20.512 76.6533317,20.3973345 76.984,20.168 C77.3146683,19.9386655 77.517333,19.6960013 77.592,19.44 L79.592,19.44 C79.2719984,20.432005 78.7813366,21.1413312 78.12,21.568 C77.4586634,21.9946688 76.6586714,22.208 75.72,22.208 C75.0693301,22.208 74.4826693,22.104001 73.96,21.896 C73.4373307,21.687999 72.9946685,21.3920019 72.632,21.008 C72.2693315,20.6239981 71.9893343,20.165336 71.792,19.632 C71.5946657,19.098664 71.496,18.5120032 71.496,17.872 C71.496,17.2533302 71.5973323,16.677336 71.8,16.144 C72.0026677,15.610664 72.2906648,15.1493353 72.664,14.76 C73.0373352,14.3706647 73.4826641,14.0640011 74,13.84 C74.5173359,13.6159989 75.0906635,13.504 75.72,13.504 C76.4240035,13.504 77.0373307,13.6399986 77.56,13.912 C78.0826693,14.1840014 78.5119983,14.549331 78.848,15.008 C79.1840017,15.466669 79.4266659,15.9893304 79.576,16.576 C79.7253341,17.1626696 79.7786669,17.7759968 79.736,18.416 L73.768,18.416 Z M81.08,13.728 L81.08,22 L83.352,22 L83.352,17.664 C83.352,16.8213291 83.4906653,16.2160018 83.768,15.848 C84.0453347,15.4799982 84.4933302,15.296 85.112,15.296 C85.6560027,15.296 86.0346656,15.4639983 86.248,15.8 C86.4613344,16.1360017 86.568,16.6453299 86.568,17.328 L86.568,22 L88.84,22 L88.84,16.912 C88.84,16.3999974 88.7946671,15.9333354 88.704,15.512 C88.6133329,15.0906646 88.4560011,14.7333348 88.232,14.44 C88.0079989,14.1466652 87.7013353,13.9173342 87.312,13.752 C86.9226647,13.5866658 86.424003,13.504 85.816,13.504 C85.3359976,13.504 84.866669,13.6133322 84.408,13.832 C83.949331,14.0506678 83.5760014,14.3999976 83.288,14.88 L83.24,14.88 L83.24,13.728 L81.08,13.728 Z"/>
    <path fill="#0C0E11" d="M16,32 C7.163444,32 0,24.836556 0,16 C0,7.163444 7.163444,0 16,0 C24.836556,0 32,7.163444 32,16 C32,24.836556 24.836556,32 16,32 Z M10.7906977,11.9858441 L10.7906977,20.0141559 C10.7906977,20.6783186 11.325783,21.2093023 11.9858441,21.2093023 L20.0141559,21.2093023 C20.6783186,21.2093023 21.2093023,20.674217 21.2093023,20.0141559 L21.2093023,11.9858441 C21.2093023,11.3216814 20.674217,10.7906977 20.0141559,10.7906977 L11.9858441,10.7906977 C11.3216814,10.7906977 10.7906977,11.325783 10.7906977,11.9858441 Z" transform="rotate(90 16 16)"/>
  </g>
</svg>
